<svg version="1.0" xmlns="http://www.w3.org/2000/svg"
 width="512.000000pt" height="512.000000pt" viewBox="0 0 512.000000 512.000000"
 preserveAspectRatio="xMidYMid meet">

<g transform="translate(0.000000,512.000000) scale(0.100000,-0.100000)"
fill="#000000" stroke="none">
<path d="M2350 5110 c-793 -72 -1485 -482 -1922 -1140 -206 -310 -341 -662
-400 -1045 -30 -199 -30 -531 0 -730 85 -547 315 -1019 686 -1403 225 -233
433 -385 716 -526 246 -122 486 -197 780 -243 160 -25 538 -25 700 0 458 71
840 230 1197 498 124 94 343 306 440 427 229 285 405 637 493 987 54 217 73
374 73 620 1 356 -53 643 -180 960 -304 758 -968 1333 -1767 1530 -240 58
-585 86 -816 65z m575 -798 c187 -158 561 -474 830 -701 270 -227 496 -421
503 -431 11 -15 11 -23 1 -42 -6 -13 -17 -26 -23 -30 -6 -4 -77 -8 -158 -8
l-148 0 0 -57 c0 -61 -18 -93 -52 -93 -17 0 -18 -24 -18 -620 l0 -620 25 -6
c34 -8 45 -32 45 -98 l0 -55 138 -3 137 -3 3 -108 3 -107 -1651 0 -1650 0 0
110 0 110 140 0 140 0 0 58 c0 62 13 88 45 94 20 3 20 12 23 626 2 577 1 622
-15 622 -35 0 -53 30 -53 92 l0 58 -150 0 c-137 0 -152 2 -170 20 -23 23 -25
40 -7 62 6 8 228 198 492 420 264 223 638 539 830 702 255 215 357 296 375
296 18 0 117 -78 365 -288z"/>
<path d="M1730 3041 c0 -64 -15 -91 -51 -91 -19 0 -19 -14 -19 -618 l0 -618
33 -15 c31 -14 32 -16 35 -81 l3 -68 94 0 95 0 0 56 c0 66 11 90 45 98 l25 6
0 620 c0 607 0 620 -19 620 -31 0 -51 38 -51 97 l0 53 -95 0 -95 0 0 -59z"/>
<path d="M2470 3056 c0 -66 -14 -95 -50 -102 l-30 -7 2 -620 3 -621 25 -6 c32
-8 50 -43 50 -102 l0 -48 90 0 90 0 0 44 c0 60 14 94 45 108 l25 11 0 618 0
617 -25 6 c-31 8 -45 41 -45 102 l0 44 -90 0 -90 0 0 -44z"/>
<path d="M3200 3045 c0 -57 -22 -95 -55 -95 -13 0 -15 -76 -15 -620 l0 -620
25 -6 c34 -8 45 -32 45 -98 l0 -56 95 0 94 0 3 68 c3 65 4 67 36 81 l32 15 0
618 c0 604 0 618 -19 618 -36 0 -51 27 -51 91 l0 59 -95 0 -95 0 0 -55z"/>
</g>
</svg>
