<svg class="svg-icon" style="width: 1em;height: 1em;vertical-align: middle;fill: currentColor;overflow: hidden;" viewBox="0 0 1024 1024" version="1.1" xmlns="http://www.w3.org/2000/svg"><path d="M915.53 853.01h-45.97v-635.7c0-75.31-61.26-136.58-136.59-136.58H291.01c-75.3 0-136.57 61.26-136.57 136.58v635.7h-45.97c-24.92 0-45.13 20.21-45.13 45.13s20.21 45.13 45.13 45.13h807.07c24.92 0 45.13-20.21 45.13-45.13s-20.21-45.13-45.14-45.13z m-476.1 0V716.62c0-40 32.55-72.55 72.57-72.55 40 0 72.55 32.55 72.55 72.55v136.39H439.43z m235.38 0V716.62c0-89.78-73.03-162.81-162.81-162.81s-162.84 73.03-162.84 162.81v136.39H244.7v-635.7c0-25.54 20.78-46.32 46.3-46.32h441.97c25.54 0 46.32 20.78 46.32 46.32v635.7H674.81z" fill="#333333" /><path d="M422.57 242.87h-61.29c-24.92 0-45.13 20.21-45.13 45.13s20.21 45.13 45.13 45.13h61.29c24.92 0 45.13-20.21 45.13-45.13s-20.2-45.13-45.13-45.13zM422.57 398.32h-61.29c-24.92 0-45.13 20.21-45.13 45.13s20.21 45.13 45.13 45.13h61.29c24.92 0 45.13-20.21 45.13-45.13s-20.2-45.13-45.13-45.13zM662.69 242.87H601.4c-24.92 0-45.13 20.21-45.13 45.13s20.21 45.13 45.13 45.13h61.29c24.92 0 45.13-20.21 45.13-45.13 0.01-24.92-20.2-45.13-45.13-45.13zM662.69 398.32H601.4c-24.92 0-45.13 20.21-45.13 45.13s20.21 45.13 45.13 45.13h61.29c24.92 0 45.13-20.21 45.13-45.13 0.01-24.92-20.2-45.13-45.13-45.13z" fill="#333333" /></svg>