<svg viewBox="0 0 64 64" xmlns="http://www.w3.org/2000/svg" xml:space="preserve" style="fill-rule:evenodd;clip-rule:evenodd;stroke-linecap:round;stroke-linejoin:round;stroke-miterlimit:2">
    <path style="fill:none" d="M0 0h64v64H0z"/>
    <path d="M53.5 17.365c0-.754-.611-1.365-1.365-1.365h-29.27c-.754 0-1.365.611-1.365 1.365v36.223a1.366 1.366 0 0 0 2.068 1.171l4-2.4a1.366 1.366 0 0 1 1.24-.084l8.11 3.476c.369.158.789.145 1.148-.034l6.823-3.412a1.368 1.368 0 0 1 1.222 0l5.413 2.707a1.365 1.365 0 0 0 1.976-1.221V17.365z" style="fill:none;stroke:#6096FA;stroke-width:2px"/>
    <path d="m21.5 45-1.692-.725a1.366 1.366 0 0 0-1.24.084l-4 2.4a1.366 1.366 0 0 1-2.068-1.171V9.365c0-.754.611-1.365 1.365-1.365h29.27c.754 0 1.365.611 1.365 1.365V12" style="fill:none;stroke:#6096FA;stroke-width:2px"/>
    <path d="M40.524 20.713c1.98 1.499 1.966 4.859-.032 7.5-1.997 2.641-5.227 3.569-7.208 2.07-1.981-1.498-1.967-4.859.031-7.5s5.228-3.568 7.209-2.07z" style="fill:none;stroke:#6096FA;stroke-width:2px"/>
    <path d="M33.284 30.283s.804-3.211 3.717-4.084c2.912-.874 3.102-5.758 3.102-5.758M32 37h11M32 42h11M32 47h11" style="fill:none;stroke:#6096FA;stroke-width:2px"/>
</svg>